<?xml version="1.0" standalone="no"?>
<!DOCTYPE svg PUBLIC "-//W3C//DTD SVG 20010904//EN"
 "http://www.w3.org/TR/2001/REC-SVG-20010904/DTD/svg10.dtd">
<svg version="1.0" xmlns="http://www.w3.org/2000/svg"
 width="700.000000pt" height="700.000000pt" viewBox="0 0 700.000000 700.000000"
 preserveAspectRatio="xMidYMid meet">
<g transform="translate(0.000000,700.000000) scale(0.100000,-0.100000)"
fill="#000000" stroke="none">
<path d="M0 3500 l0 -3500 3500 0 3500 0 0 3500 0 3500 -3500 0 -3500 0 0
-3500z m6066 1843 l45 -143 243 -2 243 -3 -184 -144 c-101 -80 -188 -151 -194
-158 -9 -9 7 -75 60 -254 40 -133 71 -243 69 -245 -2 -2 -28 16 -58 39 -30 24
-119 91 -196 151 l-142 107 -197 -151 c-108 -83 -198 -150 -199 -148 -2 2 30
113 70 248 41 135 74 246 74 246 0 1 -88 71 -196 155 l-195 154 243 5 243 5
37 115 c20 63 56 176 79 250 l42 135 34 -110 c19 -61 55 -174 79 -252z m-3898
-170 c21 -21 122 -278 412 -1045 212 -560 388 -1018 392 -1018 3 0 73 38 155
84 550 309 1090 679 1548 1059 83 69 151 124 152 123 2 -1 -256 -686 -573
-1522 -414 -1095 -582 -1526 -600 -1544 l-24 -25 -528 -3 c-608 -4 -782 2
-813 27 -13 11 -257 641 -745 1929 -398 1053 -724 1919 -724 1926 0 35 12 36
673 36 l649 0 26 -27z m2950 -4 c3 -25 -108 -335 -125 -349 -32 -27 -534 -243
-818 -352 -275 -106 -773 -273 -783 -264 -2 3 76 217 174 476 120 316 187 480
203 496 l24 24 661 -2 661 -3 3 -26z"/>
</g>
</svg>
