<svg width="13" height="14" viewBox="0 0 13 14" fill="none" xmlns="http://www.w3.org/2000/svg">
<path d="M9.28464 9.17897C9.68977 8.96134 10.1535 8.83746 10.6474 8.83746H10.649C10.6993 8.83746 10.7227 8.77719 10.6859 8.74371C10.1723 8.28279 9.58558 7.91052 8.94982 7.64214C8.94312 7.63879 8.93643 7.63712 8.92973 7.63377C9.96935 6.87875 10.6457 5.65163 10.6457 4.26714C10.6457 1.97362 8.79078 0.115356 6.50227 0.115356C4.21377 0.115356 2.36053 1.97362 2.36053 4.26714C2.36053 5.65163 3.03687 6.87875 4.07817 7.63377C4.07147 7.63712 4.06477 7.63879 4.05808 7.64214C3.30975 7.95855 2.63843 8.41223 2.06087 8.99147C1.48664 9.56466 1.02947 10.2442 0.714886 10.992C0.405365 11.7244 0.23832 12.509 0.222698 13.304C0.222251 13.3218 0.225385 13.3396 0.231915 13.3563C0.238446 13.3729 0.24824 13.3881 0.260721 13.4008C0.273202 13.4136 0.288118 13.4238 0.304589 13.4307C0.32106 13.4377 0.338754 13.4413 0.356627 13.4413H1.35942C1.4314 13.4413 1.49167 13.3827 1.49335 13.3107C1.52683 12.0183 2.04413 10.8079 2.95986 9.89047C3.90573 8.94125 5.16466 8.41893 6.50395 8.41893C7.45317 8.41893 8.36388 8.68176 9.14904 9.17395C9.16921 9.18662 9.19236 9.19376 9.21617 9.19464C9.23997 9.19553 9.26359 9.19012 9.28464 9.17897ZM6.50395 7.14661C5.73721 7.14661 5.01567 6.84694 4.47158 6.30286C4.20388 6.03585 3.99166 5.71852 3.84714 5.36914C3.70262 5.01976 3.62865 4.64523 3.62951 4.26714C3.62951 3.49873 3.92917 2.77551 4.47158 2.23143C5.01399 1.68734 5.73553 1.38768 6.50395 1.38768C7.27236 1.38768 7.99223 1.68734 8.53631 2.23143C8.80401 2.49843 9.01624 2.81577 9.16076 3.16515C9.30528 3.51453 9.37924 3.88905 9.37839 4.26714C9.37839 5.03556 9.07872 5.75877 8.53631 6.30286C7.99223 6.84694 7.27069 7.14661 6.50395 7.14661ZM12.6613 11.131H11.2551V9.72473C11.2551 9.65107 11.1948 9.5908 11.1211 9.5908H10.1836C10.11 9.5908 10.0497 9.65107 10.0497 9.72473V11.131H8.64346C8.5698 11.131 8.50953 11.1912 8.50953 11.2649V12.2024C8.50953 12.2761 8.5698 12.3363 8.64346 12.3363H10.0497V13.7426C10.0497 13.8163 10.11 13.8765 10.1836 13.8765H11.1211C11.1948 13.8765 11.2551 13.8163 11.2551 13.7426V12.3363H12.6613C12.735 12.3363 12.7952 12.2761 12.7952 12.2024V11.2649C12.7952 11.1912 12.735 11.131 12.6613 11.131Z" fill="black"/>
</svg>
