<svg width="30" height="30" viewBox="0 0 30 30" fill="none" xmlns="http://www.w3.org/2000/svg">
<path d="M29.3438 14.0271L14.1644 0.852497C14.0478 0.752051 13.8992 0.695801 13.7425 0.695801H10.1867C9.88936 0.695801 9.75275 1.06544 9.97775 1.2583L24.0483 13.4726H0.535784C0.358998 13.4726 0.214355 13.6172 0.214355 13.794V16.2047C0.214355 16.3815 0.358998 16.5262 0.535784 16.5262H24.0443L9.97373 28.7404C9.74873 28.9373 9.88534 29.3029 10.1827 29.3029H13.859C13.9353 29.3029 14.0117 29.2748 14.0679 29.2226L29.3438 15.9717C29.4829 15.8507 29.5944 15.7014 29.6709 15.5336C29.7473 15.3659 29.7868 15.1837 29.7868 14.9994C29.7868 14.815 29.7473 14.6329 29.6709 14.4651C29.5944 14.2974 29.4829 14.148 29.3438 14.0271Z" fill="white"/>
</svg>
