<svg width="21" height="20" viewBox="0 0 21 20" fill="none" xmlns="http://www.w3.org/2000/svg">
<path d="M19.1162 1.36015H16.8573V0.378008C16.8573 0.269972 16.7689 0.18158 16.6609 0.18158H4.08943C3.98139 0.18158 3.893 0.269972 3.893 0.378008V1.36015H1.63407C1.34754 1.36015 1.07275 1.47397 0.87014 1.67658C0.667534 1.87919 0.553711 2.15398 0.553711 2.44051V6.07444C0.553711 8.08046 2.02693 9.74765 3.94701 10.0521C4.32759 12.9052 6.61844 15.1519 9.49121 15.4662V18.0492H4.67871C4.24411 18.0492 3.893 18.4003 3.893 18.8349V19.628C3.893 19.736 3.98139 19.8244 4.08943 19.8244H16.6609C16.7689 19.8244 16.8573 19.736 16.8573 19.628V18.8349C16.8573 18.4003 16.5062 18.0492 16.0716 18.0492H11.2591V15.4662C14.1318 15.1519 16.4227 12.9052 16.8033 10.0521C18.7234 9.74765 20.1966 8.08046 20.1966 6.07444V2.44051C20.1966 2.15398 20.0827 1.87919 19.8801 1.67658C19.6775 1.47397 19.4027 1.36015 19.1162 1.36015ZM2.32157 6.07444V3.12801H3.893V8.22533C3.43691 8.07965 3.03891 7.7928 2.75646 7.40619C2.47401 7.01959 2.32172 6.55323 2.32157 6.07444ZM15.0894 9.21729C15.0894 10.4229 14.6205 11.5597 13.766 12.4117C12.9115 13.2662 11.7771 13.7352 10.5716 13.7352H10.1787C8.97313 13.7352 7.8363 13.2662 6.98429 12.4117C6.12983 11.5572 5.66085 10.4229 5.66085 9.21729V1.94944H15.0894V9.21729ZM18.4287 6.07444C18.4287 7.08113 17.7682 7.9356 16.8573 8.22533V3.12801H18.4287V6.07444Z" fill="black"/>
</svg>
