<svg width="18" height="18" viewBox="0 0 18 18" fill="none" xmlns="http://www.w3.org/2000/svg">
<path d="M17.0234 1.4375H15.0469V0.578125C15.0469 0.483594 14.9695 0.40625 14.875 0.40625H3.875C3.78047 0.40625 3.70312 0.483594 3.70312 0.578125V1.4375H1.72656C1.47585 1.4375 1.23541 1.5371 1.05813 1.71438C0.880845 1.89166 0.78125 2.1321 0.78125 2.38281V5.5625C0.78125 7.31777 2.07031 8.77656 3.75039 9.04297C4.08125 11.5395 6.08789 13.5074 8.60156 13.7803V16.0404H4.39062C4.01035 16.0404 3.70312 16.3477 3.70312 16.7279V17.4219C3.70312 17.5164 3.78047 17.5938 3.875 17.5938H14.875C14.9695 17.5938 15.0469 17.5164 15.0469 17.4219V16.7279C15.0469 16.3477 14.7396 16.0404 14.3594 16.0404H10.1484V13.7803C12.6621 13.5074 14.6687 11.5395 14.9996 9.04297C16.6797 8.77656 17.9688 7.31777 17.9688 5.5625V2.38281C17.9688 2.1321 17.8692 1.89166 17.6919 1.71438C17.5146 1.5371 17.2742 1.4375 17.0234 1.4375ZM3.70312 7.44453C2.90605 7.18887 2.32812 6.44121 2.32812 5.5625V2.98438H3.70312V7.44453ZM16.4219 5.5625C16.4219 6.44336 15.8439 7.19102 15.0469 7.44453V2.98438H16.4219V5.5625Z" fill="#006DFF"/>
</svg>
