<svg width="15" height="14" viewBox="0 0 15 14" fill="none" xmlns="http://www.w3.org/2000/svg">
<path d="M10.2392 4.67044H9.5522C9.40279 4.67044 9.2607 4.74222 9.17281 4.86526L6.87007 8.05862L5.82711 6.61136C5.73921 6.48978 5.59859 6.41653 5.44771 6.41653H4.7607C4.66548 6.41653 4.60982 6.52493 4.66548 6.60257L6.49068 9.13382C6.5338 9.194 6.59064 9.24304 6.65649 9.27687C6.72234 9.31069 6.79531 9.32834 6.86934 9.32834C6.94337 9.32834 7.01634 9.31069 7.08219 9.27687C7.14805 9.24304 7.20489 9.194 7.248 9.13382L10.333 4.85648C10.3901 4.77884 10.3344 4.67044 10.2392 4.67044Z" fill="white"/>
<path d="M7.5 0.4375C3.87598 0.4375 0.9375 3.37598 0.9375 7C0.9375 10.624 3.87598 13.5625 7.5 13.5625C11.124 13.5625 14.0625 10.624 14.0625 7C14.0625 3.37598 11.124 0.4375 7.5 0.4375ZM7.5 12.4492C4.49121 12.4492 2.05078 10.0088 2.05078 7C2.05078 3.99121 4.49121 1.55078 7.5 1.55078C10.5088 1.55078 12.9492 3.99121 12.9492 7C12.9492 10.0088 10.5088 12.4492 7.5 12.4492Z" fill="white"/>
</svg>
