<svg width="16" height="17" viewBox="0 0 16 17" fill="none" xmlns="http://www.w3.org/2000/svg">
<path d="M9.27137 8.49885L15.7167 0.816037C15.8247 0.688358 15.7339 0.494385 15.5669 0.494385H13.6075C13.4921 0.494385 13.3816 0.545947 13.3055 0.63434L7.98968 6.97162L2.67383 0.63434C2.60017 0.545947 2.48968 0.494385 2.37182 0.494385H0.412446C0.245481 0.494385 0.154633 0.688358 0.262669 0.816037L6.70798 8.49885L0.262669 16.1817C0.238468 16.2101 0.222942 16.2449 0.217934 16.2819C0.212926 16.319 0.218646 16.3566 0.234416 16.3905C0.250186 16.4244 0.275343 16.453 0.3069 16.473C0.338457 16.493 0.375088 16.5035 0.412446 16.5033H2.37182C2.48722 16.5033 2.59771 16.4518 2.67383 16.3634L7.98968 10.0261L13.3055 16.3634C13.3792 16.4518 13.4897 16.5033 13.6075 16.5033H15.5669C15.7339 16.5033 15.8247 16.3093 15.7167 16.1817L9.27137 8.49885Z" fill="#333333"/>
</svg>
