<svg width="22" height="18" viewBox="0 0 22 18" fill="none" xmlns="http://www.w3.org/2000/svg">
<path d="M13.0208 11.1931C13.482 10.686 13.7369 10.0247 13.7353 9.33927C13.7353 7.8194 12.51 6.58927 11 6.58927C9.48995 6.58927 8.26473 7.8194 8.26473 9.33927C8.26473 10.0538 8.53482 10.702 8.97924 11.1931C8.44674 11.523 8.00202 11.977 7.68306 12.5162C7.36409 13.0553 7.18036 13.6637 7.14754 14.2893C7.14621 14.3159 7.15031 14.3425 7.15958 14.3675C7.16885 14.3924 7.18311 14.4153 7.20149 14.4346C7.21986 14.4539 7.24197 14.4692 7.26646 14.4797C7.29096 14.4902 7.31733 14.4956 7.34397 14.4955H8.42188C8.525 14.4955 8.60848 14.4145 8.61585 14.3114C8.70915 13.069 9.74531 12.0893 11.0025 12.0893C12.2596 12.0893 13.2958 13.0714 13.3891 14.3114C13.3964 14.4145 13.4799 14.4955 13.583 14.4955H14.6585C14.6851 14.4956 14.7115 14.4902 14.736 14.4797C14.7605 14.4692 14.7826 14.4539 14.801 14.4346C14.8193 14.4153 14.8336 14.3924 14.8429 14.3675C14.8521 14.3425 14.8562 14.3159 14.8549 14.2893C14.7862 12.9806 14.0692 11.8413 13.0208 11.1931ZM11 10.6161C10.3002 10.6161 9.73058 10.044 9.73058 9.33927C9.73058 8.63458 10.3002 8.06248 11 8.06248C11.6998 8.06248 12.2694 8.63458 12.2694 9.33927C12.2694 10.044 11.6998 10.6161 11 10.6161ZM21.2143 1.92409H17.2857V0.54909C17.2857 0.441054 17.1973 0.352661 17.0893 0.352661H15.7143C15.6062 0.352661 15.5179 0.441054 15.5179 0.54909V1.92409H11.8839V0.54909C11.8839 0.441054 11.7955 0.352661 11.6875 0.352661H10.3125C10.2045 0.352661 10.1161 0.441054 10.1161 0.54909V1.92409H6.48214V0.54909C6.48214 0.441054 6.39375 0.352661 6.28571 0.352661H4.91071C4.80268 0.352661 4.71429 0.441054 4.71429 0.54909V1.92409H0.785714C0.351116 1.92409 0 2.27521 0 2.7098V16.8527C0 17.2873 0.351116 17.6384 0.785714 17.6384H21.2143C21.6489 17.6384 22 17.2873 22 16.8527V2.7098C22 2.27521 21.6489 1.92409 21.2143 1.92409ZM20.2321 15.8705H1.76786V3.69195H4.71429V5.06695C4.71429 5.17498 4.80268 5.26338 4.91071 5.26338H6.28571C6.39375 5.26338 6.48214 5.17498 6.48214 5.06695V3.69195H10.1161V5.06695C10.1161 5.17498 10.2045 5.26338 10.3125 5.26338H11.6875C11.7955 5.26338 11.8839 5.17498 11.8839 5.06695V3.69195H15.5179V5.06695C15.5179 5.17498 15.6062 5.26338 15.7143 5.26338H17.0893C17.1973 5.26338 17.2857 5.17498 17.2857 5.06695V3.69195H20.2321V15.8705Z" fill="black" fill-opacity="0.85"/>
</svg>
