<svg width="20" height="20" viewBox="0 0 20 20" fill="none" xmlns="http://www.w3.org/2000/svg">
<path d="M13.578 9.31351H10.3123V6.04788C10.3123 5.95335 10.235 5.87601 10.1405 5.87601H9.10921C9.01468 5.87601 8.93733 5.95335 8.93733 6.04788V9.31351H5.67171C5.57718 9.31351 5.49983 9.39085 5.49983 9.48538V10.5166C5.49983 10.6112 5.57718 10.6885 5.67171 10.6885H8.93733V13.9541C8.93733 14.0487 9.01468 14.126 9.10921 14.126H10.1405C10.235 14.126 10.3123 14.0487 10.3123 13.9541V10.6885H13.578C13.6725 10.6885 13.7498 10.6112 13.7498 10.5166V9.48538C13.7498 9.39085 13.6725 9.31351 13.578 9.31351Z" fill="black"/>
<path d="M9.625 0.375C4.30977 0.375 0 4.68477 0 10C0 15.3152 4.30977 19.625 9.625 19.625C14.9402 19.625 19.25 15.3152 19.25 10C19.25 4.68477 14.9402 0.375 9.625 0.375ZM9.625 17.9922C5.21211 17.9922 1.63281 14.4129 1.63281 10C1.63281 5.58711 5.21211 2.00781 9.625 2.00781C14.0379 2.00781 17.6172 5.58711 17.6172 10C17.6172 14.4129 14.0379 17.9922 9.625 17.9922Z" fill="black"/>
</svg>
