<svg width="32" height="33" viewBox="0 0 32 33" fill="none" xmlns="http://www.w3.org/2000/svg">
    <path d="M22.0956 10.9404C22.0956 10.7857 21.969 10.6591 21.8144 10.6591L19.494 10.6697L15.9995 14.8357L12.5085 10.6732L10.1847 10.6626C10.03 10.6626 9.90341 10.7857 9.90341 10.9439C9.90341 11.0107 9.92802 11.074 9.97021 11.1267L14.544 16.5759L9.97021 22.0216C9.92773 22.0731 9.90416 22.1377 9.90341 22.2044C9.90341 22.3591 10.03 22.4857 10.1847 22.4857L12.5085 22.4751L15.9995 18.3091L19.4905 22.4716L21.8108 22.4822C21.9655 22.4822 22.0921 22.3591 22.0921 22.2009C22.0921 22.1341 22.0675 22.0708 22.0253 22.0181L17.4585 16.5724L22.0323 11.1232C22.0745 11.074 22.0956 11.0072 22.0956 10.9404Z" fill="white"/>
    <path d="M16 0.75C7.30234 0.75 0.25 7.80234 0.25 16.5C0.25 25.1977 7.30234 32.25 16 32.25C24.6977 32.25 31.75 25.1977 31.75 16.5C31.75 7.80234 24.6977 0.75 16 0.75ZM16 29.5781C8.77891 29.5781 2.92188 23.7211 2.92188 16.5C2.92188 9.27891 8.77891 3.42188 16 3.42188C23.2211 3.42188 29.0781 9.27891 29.0781 16.5C29.0781 23.7211 23.2211 29.5781 16 29.5781Z" fill="white"/>
</svg>
