<svg width="14" height="14" viewBox="0 0 14 14" fill="none" xmlns="http://www.w3.org/2000/svg">
<path d="M9.53983 4.68349C9.53983 4.61903 9.4871 4.5663 9.42265 4.5663L8.45585 4.57069L6.99979 6.30653L5.5452 4.57216L4.57694 4.56776C4.51249 4.56776 4.45975 4.61903 4.45975 4.68495C4.45975 4.71278 4.47001 4.73915 4.48759 4.76112L6.39335 7.03163L4.48759 9.30067C4.46989 9.32214 4.46006 9.34902 4.45975 9.37685C4.45975 9.4413 4.51249 9.49403 4.57694 9.49403L5.5452 9.48964L6.99979 7.7538L8.45438 9.48817L9.42118 9.49257C9.48563 9.49257 9.53837 9.4413 9.53837 9.37538C9.53837 9.34755 9.52811 9.32118 9.51054 9.29921L7.6077 7.03017L9.51347 4.75966C9.53104 4.73915 9.53983 4.71132 9.53983 4.68349Z" fill="black"/>
<path d="M7 0.4375C3.37598 0.4375 0.4375 3.37598 0.4375 7C0.4375 10.624 3.37598 13.5625 7 13.5625C10.624 13.5625 13.5625 10.624 13.5625 7C13.5625 3.37598 10.624 0.4375 7 0.4375ZM7 12.4492C3.99121 12.4492 1.55078 10.0088 1.55078 7C1.55078 3.99121 3.99121 1.55078 7 1.55078C10.0088 1.55078 12.4492 3.99121 12.4492 7C12.4492 10.0088 10.0088 12.4492 7 12.4492Z" fill="black"/>
</svg>
