<svg width="20" height="20" viewBox="0 0 20 20" fill="none" xmlns="http://www.w3.org/2000/svg">
<path d="M19.8886 18.4126L13.5121 12.036C14.5016 10.7568 15.0368 9.19274 15.0368 7.54765C15.0368 5.57845 14.2683 3.73203 12.8786 2.33984C11.4888 0.947651 9.6375 0.18158 7.67076 0.18158C5.70402 0.18158 3.85268 0.950106 2.46295 2.33984C1.07076 3.72957 0.304688 5.57845 0.304688 7.54765C0.304688 9.51439 1.07321 11.3657 2.46295 12.7555C3.85268 14.1476 5.70156 14.9137 7.67076 14.9137C9.31585 14.9137 10.8775 14.3785 12.1567 13.3914L18.5333 19.7655C18.552 19.7842 18.5742 19.7991 18.5986 19.8092C18.623 19.8193 18.6492 19.8245 18.6757 19.8245C18.7021 19.8245 18.7283 19.8193 18.7527 19.8092C18.7772 19.7991 18.7994 19.7842 18.8181 19.7655L19.8886 18.6974C19.9073 18.6787 19.9222 18.6565 19.9323 18.6321C19.9424 18.6077 19.9476 18.5815 19.9476 18.555C19.9476 18.5286 19.9424 18.5024 19.9323 18.4779C19.9222 18.4535 19.9073 18.4313 19.8886 18.4126ZM11.56 11.4369C10.519 12.4756 9.13906 13.0477 7.67076 13.0477C6.20246 13.0477 4.82254 12.4756 3.78147 11.4369C2.74286 10.3959 2.17076 9.01595 2.17076 7.54765C2.17076 6.07935 2.74286 4.69698 3.78147 3.65837C4.82254 2.61975 6.20246 2.04765 7.67076 2.04765C9.13906 2.04765 10.5214 2.61729 11.56 3.65837C12.5987 4.69944 13.1708 6.07935 13.1708 7.54765C13.1708 9.01595 12.5987 10.3983 11.56 11.4369Z" fill="#006DFF"/>
</svg>
