<svg width="20" height="20" viewBox="0 0 20 20" fill="none" xmlns="http://www.w3.org/2000/svg">
<path d="M19.8876 18.4126L13.5111 12.036C14.5006 10.7568 15.0359 9.19274 15.0359 7.54765C15.0359 5.57845 14.2673 3.73203 12.8776 2.33984C11.4879 0.947651 9.63652 0.18158 7.66978 0.18158C5.70304 0.18158 3.8517 0.950106 2.46197 2.33984C1.06978 3.72957 0.303711 5.57845 0.303711 7.54765C0.303711 9.51439 1.07224 11.3657 2.46197 12.7555C3.8517 14.1476 5.70059 14.9137 7.66978 14.9137C9.31487 14.9137 10.8765 14.3785 12.1557 13.3914L18.5323 19.7655C18.551 19.7842 18.5732 19.7991 18.5976 19.8092C18.6221 19.8193 18.6482 19.8245 18.6747 19.8245C18.7011 19.8245 18.7273 19.8193 18.7518 19.8092C18.7762 19.7991 18.7984 19.7842 18.8171 19.7655L19.8876 18.6974C19.9063 18.6787 19.9212 18.6565 19.9313 18.6321C19.9414 18.6077 19.9467 18.5815 19.9467 18.555C19.9467 18.5286 19.9414 18.5024 19.9313 18.4779C19.9212 18.4535 19.9063 18.4313 19.8876 18.4126ZM11.5591 11.4369C10.518 12.4756 9.13809 13.0477 7.66978 13.0477C6.20148 13.0477 4.82157 12.4756 3.7805 11.4369C2.74188 10.3959 2.16978 9.01595 2.16978 7.54765C2.16978 6.07935 2.74188 4.69698 3.7805 3.65837C4.82157 2.61975 6.20148 2.04765 7.66978 2.04765C9.13809 2.04765 10.5205 2.61729 11.5591 3.65837C12.5977 4.69944 13.1698 6.07935 13.1698 7.54765C13.1698 9.01595 12.5977 10.3983 11.5591 11.4369Z" fill="black"/>
</svg>
