<svg width="13" height="2" viewBox="0 0 13 2" fill="none" xmlns="http://www.w3.org/2000/svg">
<path d="M0.875 0.985352C0.875 1.10847 0.899249 1.23037 0.946363 1.34412C0.993477 1.45786 1.06253 1.56121 1.14959 1.64826C1.23664 1.73532 1.33999 1.80437 1.45373 1.85149C1.56748 1.8986 1.68939 1.92285 1.8125 1.92285C1.93561 1.92285 2.05752 1.8986 2.17127 1.85149C2.28501 1.80437 2.38836 1.73532 2.47541 1.64826C2.56247 1.56121 2.63152 1.45786 2.67864 1.34412C2.72575 1.23037 2.75 1.10847 2.75 0.985352C2.75 0.862237 2.72575 0.740329 2.67864 0.626586C2.63152 0.512843 2.56247 0.409494 2.47541 0.322439C2.38836 0.235384 2.28501 0.166328 2.17127 0.119215C2.05752 0.0721009 1.93561 0.0478516 1.8125 0.0478516C1.68939 0.0478516 1.56748 0.0721009 1.45373 0.119215C1.33999 0.166328 1.23664 0.235384 1.14959 0.322439C1.06253 0.409494 0.993477 0.512843 0.946363 0.626586C0.899249 0.740329 0.875 0.862237 0.875 0.985352ZM5.5625 0.985352C5.5625 1.23399 5.66127 1.47245 5.83709 1.64826C6.0129 1.82408 6.25136 1.92285 6.5 1.92285C6.74864 1.92285 6.9871 1.82408 7.16291 1.64826C7.33873 1.47245 7.4375 1.23399 7.4375 0.985352C7.4375 0.736711 7.33873 0.498254 7.16291 0.322439C6.9871 0.146623 6.74864 0.0478516 6.5 0.0478516C6.25136 0.0478516 6.0129 0.146623 5.83709 0.322439C5.66127 0.498254 5.5625 0.736711 5.5625 0.985352ZM10.25 0.985352C10.25 1.23399 10.3488 1.47245 10.5246 1.64826C10.7004 1.82408 10.9389 1.92285 11.1875 1.92285C11.4361 1.92285 11.6746 1.82408 11.8504 1.64826C12.0262 1.47245 12.125 1.23399 12.125 0.985352C12.125 0.736711 12.0262 0.498254 11.8504 0.322439C11.6746 0.146623 11.4361 0.0478516 11.1875 0.0478516C10.9389 0.0478516 10.7004 0.146623 10.5246 0.322439C10.3488 0.498254 10.25 0.736711 10.25 0.985352Z" fill="white"/>
</svg>
