<svg width="20" height="20" viewBox="0 0 20 20" fill="none" xmlns="http://www.w3.org/2000/svg">
<path d="M19.2101 9.84954L10.3606 1.00657C10.2969 0.942731 10.2212 0.892081 10.1379 0.857523C10.0546 0.822964 9.9653 0.805176 9.8751 0.805176C9.7849 0.805176 9.69558 0.822964 9.61227 0.857523C9.52895 0.892081 9.45327 0.942731 9.38955 1.00657L0.540137 9.84954C0.282324 10.1074 0.13623 10.4576 0.13623 10.8228C0.13623 11.5812 0.752832 12.1978 1.51123 12.1978H2.44365V18.5077C2.44365 18.888 2.75088 19.1952 3.13115 19.1952H8.5001V14.3827H10.9063V19.1952H16.619C16.9993 19.1952 17.3065 18.888 17.3065 18.5077V12.1978H18.239C18.6042 12.1978 18.9544 12.0538 19.2122 11.7939C19.7472 11.2568 19.7472 10.3867 19.2101 9.84954Z" fill="#006DFF"/>
</svg>
