<svg width="23" height="22" viewBox="0 0 23 22" fill="none" xmlns="http://www.w3.org/2000/svg">
<path d="M22.5449 10.8267L13.0574 1.34412L12.4214 0.708187C12.2765 0.564245 12.0806 0.483459 11.8763 0.483459C11.6721 0.483459 11.4761 0.564245 11.3312 0.708187L1.2078 10.8267C1.05933 10.9746 0.941989 11.1507 0.862707 11.3447C0.783425 11.5387 0.743809 11.7466 0.746196 11.9562C0.756017 12.8205 1.47544 13.5104 2.33972 13.5104H3.38325V21.5075H20.3694V13.5104H21.435C21.8549 13.5104 22.2502 13.3459 22.5473 13.0488C22.6936 12.903 22.8095 12.7296 22.8883 12.5387C22.9671 12.3477 23.0073 12.1431 23.0065 11.9365C23.0065 11.5191 22.842 11.1238 22.5449 10.8267ZM13.2513 19.7397H10.5013V14.7307H13.2513V19.7397ZM18.6016 11.7426V19.7397H14.8228V14.1414C14.8228 13.5988 14.3832 13.1593 13.8406 13.1593H9.91204C9.36941 13.1593 8.9299 13.5988 8.9299 14.1414V19.7397H5.15111V11.7426H2.79396L11.8788 2.66511L12.446 3.23229L20.9611 11.7426H18.6016Z" fill="black"/>
</svg>
