<svg width="144" height="144" viewBox="0 0 144 144" fill="none" xmlns="http://www.w3.org/2000/svg">
    <path d="M32.625 118.125H111.375V75.375H32.625V118.125ZM72 86.3438C73.4287 86.3441 74.8204 86.7977 75.9749 87.6392C77.1294 88.4807 77.9872 89.6668 78.4249 91.0268C78.8626 92.3867 78.8576 93.8505 78.4106 95.2074C77.9636 96.5644 77.0977 97.7445 75.9375 98.5781V106.031C75.9375 106.65 75.4313 107.156 74.8125 107.156H69.1875C68.5687 107.156 68.0625 106.65 68.0625 106.031V98.5781C66.9023 97.7445 66.0364 96.5644 65.5894 95.2074C65.1424 93.8505 65.1374 92.3867 65.5751 91.0268C66.0128 89.6668 66.8706 88.4807 68.0251 87.6392C69.1796 86.7977 70.5713 86.3441 72 86.3438Z" fill="white"/>
    <path d="M117 65.25H107.438V33.75C107.438 23.8078 99.3797 15.75 89.4375 15.75H54.5625C44.6203 15.75 36.5625 23.8078 36.5625 33.75V65.25H27C24.5109 65.25 22.5 67.2609 22.5 69.75V123.75C22.5 126.239 24.5109 128.25 27 128.25H117C119.489 128.25 121.5 126.239 121.5 123.75V69.75C121.5 67.2609 119.489 65.25 117 65.25ZM46.6875 33.75C46.6875 29.4047 50.2172 25.875 54.5625 25.875H89.4375C93.7828 25.875 97.3125 29.4047 97.3125 33.75V65.25H46.6875V33.75ZM111.375 118.125H32.625V75.375H111.375V118.125Z" fill="url(#paint0_linear)"/>
    <path d="M68.0616 98.5774V106.031C68.0616 106.649 68.5678 107.156 69.1866 107.156H74.8116C75.4303 107.156 75.9366 106.649 75.9366 106.031V98.5774C77.0974 97.744 77.9638 96.5638 78.4111 95.2066C78.8585 93.8494 78.8636 92.3852 78.4259 91.0249C77.9881 89.6646 77.13 88.4783 75.9751 87.6367C74.8202 86.7951 73.4281 86.3417 71.9991 86.3417C70.57 86.3417 69.1779 86.7951 68.023 87.6367C66.8681 88.4783 66.01 89.6646 65.5722 91.0249C65.1345 92.3852 65.1396 93.8494 65.587 95.2066C66.0343 96.5638 66.9007 97.744 68.0616 98.5774Z" fill="url(#paint1_linear)"/>
    <defs>
        <linearGradient id="paint0_linear" x1="22.5" y1="126.479" x2="32.9119" y2="-1.12202" gradientUnits="userSpaceOnUse">
            <stop stop-color="#00EFFF"/>
            <stop offset="0.8187" stop-color="#006DFF"/>
        </linearGradient>
        <linearGradient id="paint1_linear" x1="22.5" y1="126.479" x2="32.9119" y2="-1.12202" gradientUnits="userSpaceOnUse">
            <stop stop-color="#00EFFF"/>
            <stop offset="0.8187" stop-color="#006DFF"/>
        </linearGradient>
    </defs>
</svg>
