<svg width="22" height="22" viewBox="0 0 22 22" fill="none" xmlns="http://www.w3.org/2000/svg">
<path d="M19.7411 16.403H18.0149C17.8971 16.403 17.7866 16.4545 17.7129 16.5454C17.5411 16.7541 17.3569 16.9554 17.1629 17.1469C16.3696 17.9411 15.4299 18.574 14.3957 19.0106C13.3244 19.4631 12.1728 19.6952 11.0098 19.6932C9.83369 19.6932 8.69441 19.4624 7.62387 19.0106C6.58975 18.574 5.65003 17.9411 4.85668 17.1469C4.06192 16.3555 3.4282 15.4174 2.99061 14.3847C2.53637 13.3141 2.30802 12.1773 2.30802 11.0012C2.30802 9.82507 2.53883 8.68824 2.99061 7.61771C3.42767 6.584 4.05624 5.65342 4.85668 4.85543C5.65713 4.05744 6.58771 3.42887 7.62387 2.99181C8.69441 2.54003 9.83369 2.30922 11.0098 2.30922C12.1859 2.30922 13.3252 2.53757 14.3957 2.99181C15.4319 3.42887 16.3625 4.05744 17.1629 4.85543C17.3569 5.0494 17.5386 5.25074 17.7129 5.45699C17.7866 5.54784 17.8995 5.5994 18.0149 5.5994H19.7411C19.8957 5.5994 19.9915 5.42753 19.9056 5.29739C18.0223 2.37061 14.7272 0.433331 10.9828 0.443152C5.09976 0.457885 0.383024 5.23356 0.441952 11.1092C0.500881 16.8916 5.21026 21.5592 11.0098 21.5592C14.7444 21.5592 18.0248 19.6244 19.9056 16.705C19.9891 16.5749 19.8957 16.403 19.7411 16.403ZM21.9239 10.8465L18.4397 8.0965C18.3096 7.99338 18.1205 8.08668 18.1205 8.25119V10.1173H10.4107C10.3027 10.1173 10.2143 10.2057 10.2143 10.3137V11.6887C10.2143 11.7967 10.3027 11.8851 10.4107 11.8851H18.1205V13.7512C18.1205 13.9157 18.312 14.009 18.4397 13.9059L21.9239 11.1559C21.9474 11.1375 21.9663 11.114 21.9794 11.0872C21.9925 11.0604 21.9992 11.031 21.9992 11.0012C21.9992 10.9714 21.9925 10.942 21.9794 10.9152C21.9663 10.8884 21.9474 10.8649 21.9239 10.8465Z" fill="black" fill-opacity="0.85"/>
</svg>
