<svg width="190" height="126" viewBox="0 0 190 126" fill="none" xmlns="http://www.w3.org/2000/svg">
    <path d="M44.4176 53.5616L33.2488 82.9333H33.4354V91H57.2965C58.0229 91 58.83 90.417 59.1024 89.6933L82.8525 27.2357C71.7341 36.8906 58.8149 45.8016 44.4176 53.5616ZM88.7042 11.8412C88.9766 11.1225 88.6134 10.5344 87.892 10.5344H62.0838C61.3624 10.5344 60.5502 11.1175 60.2778 11.8412L52.9077 31.2213C65.0399 27.5373 76.2087 23.2149 86.2273 18.3548L88.7042 11.8412Z" fill="white"/>
    <path d="M105.881 0L102.612 10.4389L92.2656 10.5193L100.594 17.0531L97.4666 27.5422L105.881 21.1341L114.301 27.5422L111.173 17.0531L119.502 10.5193L109.15 10.4389L105.881 0Z" fill="#00EFFF"/>
    <path d="M26.7109 10.5344C27.4323 10.5344 28.2445 11.1175 28.5169 11.8412L58.1187 89.6933C58.3911 90.412 58.0279 91 57.3065 91H31.4983C30.7718 91 29.9647 90.417 29.6923 89.6933L0.0905027 11.8412C-0.181906 11.1225 0.181298 10.5344 0.902678 10.5344H26.7109Z" fill="#00EFFF"/>
    <path d="M184.259 84.4561C185.369 83.451 186.272 81.9482 186.272 79.9378C186.272 76.5252 183.755 73.9167 180.33 73.9167C178.715 73.9167 177.711 74.3188 176.602 75.1229C173.479 77.4299 169.953 78.7366 165.72 78.7366C158.87 78.7366 154.032 75.123 152.524 68.1972H182.847C186.877 68.1972 190 65.2871 190 60.8693C190 49.7268 182.04 34.9756 164.01 34.9756C148.296 34.9756 137.314 47.6209 137.314 62.9802V63.1813C137.314 79.6413 149.305 90.9849 165.524 90.9849C173.383 90.9798 179.527 88.4719 184.259 84.4561ZM152.327 58.6629C153.538 51.7372 157.669 47.2188 164.015 47.2188C170.462 47.2188 174.493 51.8377 175.401 58.6629H152.327ZM126.534 84.4561C127.644 83.451 128.547 81.9482 128.547 79.9378C128.547 76.5252 126.029 73.9167 122.604 73.9167C120.99 73.9167 119.986 74.3188 118.876 75.1229C115.753 77.4299 112.227 78.7366 107.995 78.7366C101.144 78.7366 96.3065 75.123 94.7981 68.1972H125.121C129.152 68.1972 132.275 65.2871 132.275 60.8693C132.275 49.7268 124.314 34.9756 106.285 34.9756C90.5707 34.9756 79.5886 47.6209 79.5886 62.9802V63.1813C79.5886 79.6413 91.5797 90.9849 107.798 90.9849C115.658 90.9798 121.802 88.4719 126.534 84.4561ZM94.6014 58.6629C95.8121 51.7372 99.9386 47.2188 106.29 47.2188C112.737 47.2188 116.767 51.8377 117.675 58.6629H94.6014Z" fill="white"/>
    <path d="M33.883 113.632C33.291 111.664 31.531 110.288 29.067 110.288C25.819 110.288 23.595 112.672 23.595 116.24C23.595 119.824 25.819 122.176 29.035 122.176C31.307 122.176 33.211 121.008 33.931 119.104L32.635 118.544C32.171 119.872 30.795 120.832 29.051 120.832C26.683 120.832 25.035 119.056 25.035 116.24C25.035 113.472 26.635 111.632 29.067 111.632C30.795 111.632 32.107 112.56 32.587 114.112L33.883 113.632ZM39.665 114C38.545 114 37.601 114.512 37.121 115.28V110.272H35.793V121.984H37.105V117.696C37.105 116.08 38.225 115.2 39.425 115.2C40.545 115.2 41.553 115.68 41.553 117.6V122H42.865V117.328C42.865 114.928 41.457 114 39.665 114ZM51.4419 122C51.3619 121.728 51.2979 121.024 51.2979 120.432V117.024C51.2979 114.784 49.8419 114 48.1139 114C46.6419 114 45.4579 114.576 44.8339 115.808L45.8259 116.384C46.1939 115.616 46.8979 115.104 48.0499 115.104C49.1539 115.104 50.0179 115.568 50.0179 116.96V117.28H47.3939C45.6659 117.28 44.5459 118.24 44.5459 119.744C44.5459 121.248 45.6819 122.192 47.3779 122.192C48.6419 122.192 49.6019 121.616 50.0339 120.864C50.0659 121.344 50.0979 121.76 50.1619 122H51.4419ZM50.0179 118.496C50.0179 120.192 49.0739 121.152 47.6339 121.152C46.5779 121.152 45.8739 120.672 45.8739 119.728C45.8739 118.832 46.5139 118.272 47.6819 118.272H50.0179V118.496ZM53.4961 122H54.8241V110.272H53.4961V122ZM57.1211 122H58.4491V110.272H57.1211V122ZM67.7861 118.096C67.7861 115.6 66.2821 114 64.0261 114C61.6901 114 60.2181 115.712 60.2181 118.128C60.2181 120.592 61.7381 122.192 63.9781 122.192C65.5461 122.192 66.8421 121.424 67.4661 120.048L66.3621 119.584C65.9461 120.464 65.1621 121.056 64.0101 121.056C62.7141 121.056 61.6261 120.32 61.4981 118.688H67.7861V118.096ZM64.0101 115.12C65.4021 115.12 66.3621 115.984 66.4261 117.712H61.4981C61.6261 116.064 62.5861 115.12 64.0101 115.12ZM73.4299 114C72.2779 114 71.3339 114.496 70.8699 115.248L70.8219 114.208H69.5899V121.984H70.9019V117.6C70.9019 116.08 71.8619 115.2 73.1739 115.2C74.0699 115.2 75.1899 115.632 75.1899 117.424V122H76.5019V117.232C76.5019 114.96 75.1419 114 73.4299 114ZM83.2105 121.136H80.3305C79.6745 121.136 79.4825 120.8 79.4825 120.48C79.4825 120.08 79.7545 119.808 80.3305 119.808C80.7785 119.984 81.2905 120.08 81.8345 120.08C83.8345 120.08 85.1785 118.832 85.1785 117.056C85.1785 116.24 84.8905 115.536 84.3945 115.008C84.6985 114.704 85.1465 114.56 85.6905 114.624V113.488C84.7465 113.408 84.0265 113.792 83.6585 114.432C83.1465 114.16 82.5225 114 81.8345 114C79.8185 114 78.4585 115.28 78.4585 117.056C78.4585 117.968 78.8265 118.72 79.4345 119.264C78.6345 119.504 78.3625 120.176 78.3625 120.72C78.3625 121.296 78.6665 121.728 79.1305 121.984C78.4425 122.288 78.0105 122.912 78.0105 123.664C78.0105 125.344 80.0265 125.728 81.8825 125.712C83.9785 125.696 85.8185 125.136 85.8185 123.328C85.8185 121.984 84.8585 121.136 83.2105 121.136ZM81.8185 115.072C83.1305 115.072 83.8985 115.984 83.8985 117.072C83.8985 118.128 83.1625 119.008 81.8345 119.008C80.5385 119.024 79.7385 118.176 79.7385 117.072C79.7385 115.952 80.5385 115.072 81.8185 115.072ZM81.8185 124.592C80.6345 124.592 79.1625 124.496 79.1625 123.36C79.1625 122.864 79.4505 122.384 80.1385 122.24H80.2665H83.0505C83.9465 122.24 84.5225 122.608 84.5225 123.344C84.5225 124.4 83.3385 124.592 81.8185 124.592ZM94.2861 118.096C94.2861 115.6 92.7821 114 90.5261 114C88.1901 114 86.7181 115.712 86.7181 118.128C86.7181 120.592 88.2381 122.192 90.4781 122.192C92.0461 122.192 93.3421 121.424 93.9661 120.048L92.8621 119.584C92.4461 120.464 91.6621 121.056 90.5101 121.056C89.2141 121.056 88.1261 120.32 87.9981 118.688H94.2861V118.096ZM90.5101 115.12C91.9021 115.12 92.8621 115.984 92.9261 117.712H87.9981C88.1261 116.064 89.0861 115.12 90.5101 115.12ZM104.048 114.208H102.512V111.76H101.216V114.208H99.6801V115.296H101.216V122H102.512V115.296H104.048V114.208ZM109.446 114C108.326 114 107.382 114.512 106.902 115.28V110.272H105.574V121.984H106.886V117.696C106.886 116.08 108.006 115.2 109.206 115.2C110.326 115.2 111.334 115.68 111.334 117.6V122H112.646V117.328C112.646 114.928 111.238 114 109.446 114ZM121.755 118.096C121.755 115.6 120.251 114 117.995 114C115.659 114 114.187 115.712 114.187 118.128C114.187 120.592 115.707 122.192 117.947 122.192C119.515 122.192 120.811 121.424 121.435 120.048L120.331 119.584C119.915 120.464 119.131 121.056 117.979 121.056C116.683 121.056 115.595 120.32 115.467 118.688H121.755V118.096ZM117.979 115.12C119.371 115.12 120.331 115.984 120.395 117.712H115.467C115.595 116.064 116.555 115.12 117.979 115.12ZM137.389 114.208L135.485 120.144L133.597 114.208H132.253L130.333 120.096L128.461 114.208H127.069L129.661 122H130.973L132.925 116.176L134.845 122H136.109L138.781 114.208H137.389ZM139.453 118.096C139.453 120.416 141.037 122.192 143.405 122.192C145.789 122.192 147.357 120.416 147.357 118.096C147.357 115.792 145.789 114 143.405 114C141.037 114 139.453 115.792 139.453 118.096ZM140.797 118.096C140.797 116.432 141.821 115.184 143.405 115.184C145.005 115.184 146.029 116.432 146.029 118.096C146.029 119.776 145.005 121.008 143.405 121.008C141.821 121.008 140.797 119.776 140.797 118.096ZM150.416 115.2L150.352 114.224H149.12V122H150.448V117.68C150.448 116 151.52 114.992 153.408 115.424V114.208C152.16 113.936 150.864 114.272 150.416 115.2ZM154.965 122H156.293V110.272H154.965V122ZM166.062 122C165.982 121.664 165.934 120.752 165.918 120.176V110.272H164.622V115.456C164.046 114.48 162.958 114 161.806 114C159.518 114 158.062 115.712 158.062 118.112C158.062 120.592 159.518 122.192 161.79 122.192C163.006 122.192 164.078 121.68 164.622 120.688C164.638 121.152 164.686 121.568 164.75 122H166.062ZM161.95 121.008C160.366 121.008 159.39 119.824 159.39 118.096C159.39 116.384 160.366 115.184 161.95 115.184C163.55 115.184 164.526 116.384 164.526 118.096C164.526 119.824 163.55 121.008 161.95 121.008Z" fill="white"/>
</svg>
