<svg width="20" height="20" viewBox="0 0 20 20" fill="none" xmlns="http://www.w3.org/2000/svg">
<path d="M17.6658 14.6171C17.0512 14.0021 16.3331 13.5 15.5444 13.1341C16.6567 12.233 17.3663 10.858 17.3663 9.31602C17.3663 6.59549 15.0975 4.36357 12.377 4.40531C9.69819 4.44705 7.53993 6.62986 7.53993 9.31602C7.53993 10.858 8.25199 12.233 9.36181 13.1341C8.57292 13.4998 7.85476 14.0018 7.24038 14.6171C5.89975 15.9602 5.13859 17.733 5.08949 19.6236C5.08883 19.6498 5.09343 19.6759 5.10301 19.7003C5.11258 19.7247 5.12695 19.7469 5.14525 19.7657C5.16356 19.7845 5.18544 19.7994 5.20959 19.8095C5.23375 19.8197 5.2597 19.825 5.28591 19.825H6.66091C6.76649 19.825 6.85489 19.7415 6.85734 19.6359C6.904 18.2118 7.481 16.8785 8.49507 15.8669C9.01398 15.3452 9.63121 14.9317 10.311 14.6501C10.9908 14.3686 11.7198 14.2247 12.4556 14.2267C13.9509 14.2267 15.3578 14.8087 16.416 15.8669C17.4277 16.8785 18.0047 18.2118 18.0538 19.6359C18.0562 19.7415 18.1446 19.825 18.2502 19.825H19.6252C19.6514 19.825 19.6774 19.8197 19.7015 19.8095C19.7257 19.7994 19.7476 19.7845 19.7659 19.7657C19.7842 19.7469 19.7985 19.7247 19.8081 19.7003C19.8177 19.6759 19.8223 19.6498 19.8216 19.6236C19.7725 17.733 19.0114 15.9602 17.6658 14.6171ZM12.4556 12.4589C11.6158 12.4589 10.8252 12.1323 10.2335 11.5381C9.93649 11.2435 9.70191 10.8921 9.54372 10.5048C9.38552 10.1175 9.30695 9.70239 9.3127 9.2841C9.32007 8.47875 9.64172 7.7004 10.204 7.12339C10.7933 6.51937 11.5815 6.18299 12.4236 6.17317C13.256 6.1658 14.0638 6.48991 14.658 7.07183C15.2669 7.66848 15.6009 8.46647 15.6009 9.31602C15.6009 10.1558 15.2743 10.9439 14.6801 11.5381C14.3886 11.831 14.0419 12.0632 13.66 12.2213C13.2782 12.3793 12.8688 12.4601 12.4556 12.4589ZM6.30489 9.96424C6.28279 9.75062 6.27051 9.53455 6.27051 9.31602C6.27051 8.92562 6.30734 8.54504 6.37609 8.17428C6.39328 8.08589 6.34663 7.99504 6.2656 7.95821C5.93167 7.80843 5.62475 7.60218 5.35958 7.34192C5.04711 7.03894 4.80122 6.67416 4.63761 6.27085C4.47401 5.86753 4.39627 5.43454 4.40935 4.99951C4.43145 4.21134 4.74819 3.46245 5.30065 2.89772C5.90712 2.27651 6.7223 1.93767 7.58904 1.9475C8.3723 1.95486 9.12855 2.25687 9.70065 2.79214C9.89462 2.97384 10.0616 3.17517 10.2015 3.39125C10.2506 3.46736 10.3464 3.49928 10.4299 3.46982C10.862 3.32004 11.3187 3.21446 11.7877 3.16535C11.9252 3.15062 12.0038 3.0033 11.9424 2.88053C11.1444 1.30174 9.51404 0.211559 7.62832 0.182095C4.90533 0.140354 2.63658 2.37227 2.63658 5.09035C2.63658 6.63232 3.34618 8.00732 4.45846 8.90843C3.67766 9.26937 2.95824 9.76781 2.33458 10.3915C0.98904 11.7345 0.227879 13.5073 0.178772 15.4004C0.178117 15.4266 0.182713 15.4527 0.192291 15.4771C0.201869 15.5015 0.216234 15.5237 0.234539 15.5425C0.252845 15.5612 0.274722 15.5762 0.298879 15.5863C0.323037 15.5965 0.348987 15.6017 0.375201 15.6017H1.75266C1.85824 15.6017 1.94663 15.5183 1.94908 15.4127C1.99574 13.9886 2.57275 12.6553 3.58681 11.6437C4.30868 10.9218 5.19261 10.4209 6.15757 10.1779C6.25333 10.1533 6.31716 10.0625 6.30489 9.96424Z" fill="black" fill-opacity="0.85"/>
</svg>
