<svg width="22" height="20" viewBox="0 0 22 20" fill="none" xmlns="http://www.w3.org/2000/svg">
<path d="M21.0922 4.3875C20.7631 3.62545 20.2885 2.93488 19.6951 2.35446C19.1012 1.77231 18.4011 1.30969 17.6326 0.991741C16.8358 0.660742 15.9812 0.491317 15.1183 0.493303C13.9078 0.493303 12.7268 0.824777 11.7005 1.45089C11.4549 1.60067 11.2217 1.76518 11.0007 1.94442C10.7797 1.76518 10.5465 1.60067 10.3009 1.45089C9.27458 0.824777 8.09355 0.493303 6.88306 0.493303C6.01141 0.493303 5.16677 0.660268 4.36878 0.991741C3.5978 1.31094 2.90293 1.77009 2.30628 2.35446C1.71207 2.93423 1.23741 3.62496 0.90918 4.3875C0.567885 5.18058 0.393555 6.02277 0.393555 6.88951C0.393555 7.70714 0.560519 8.55915 0.891992 9.42589C1.16945 10.1502 1.56722 10.9016 2.07547 11.6603C2.88083 12.8609 3.9882 14.1132 5.3632 15.3826C7.64177 17.4868 9.89824 18.9404 9.994 18.9993L10.5759 19.3725C10.8337 19.5371 11.1652 19.5371 11.423 19.3725L12.0049 18.9993C12.1007 18.9379 14.3547 17.4868 16.6357 15.3826C18.0107 14.1132 19.1181 12.8609 19.9235 11.6603C20.4317 10.9016 20.8319 10.1502 21.1069 9.42589C21.4384 8.55915 21.6054 7.70714 21.6054 6.88951C21.6078 6.02277 21.4335 5.18058 21.0922 4.3875ZM11.0007 17.4304C11.0007 17.4304 2.25963 11.8297 2.25963 6.88951C2.25963 4.3875 4.32949 2.35937 6.88306 2.35937C8.67793 2.35937 10.2346 3.36116 11.0007 4.82455C11.7668 3.36116 13.3235 2.35937 15.1183 2.35937C17.6719 2.35937 19.7418 4.3875 19.7418 6.88951C19.7418 11.8297 11.0007 17.4304 11.0007 17.4304Z" fill="black" fill-opacity="0.85"/>
</svg>
