<svg width="20" height="22" viewBox="0 0 20 22" fill="none" xmlns="http://www.w3.org/2000/svg">
<path d="M14.3221 6.0848V4.90623C14.3221 4.7982 14.2337 4.7098 14.1257 4.7098H4.69713C4.58909 4.7098 4.5007 4.7982 4.5007 4.90623V6.0848C4.5007 6.19284 4.58909 6.28123 4.69713 6.28123H14.1257C14.2337 6.28123 14.3221 6.19284 14.3221 6.0848ZM4.69713 8.24552C4.58909 8.24552 4.5007 8.33391 4.5007 8.44195V9.62052C4.5007 9.72855 4.58909 9.81695 4.69713 9.81695H9.21498C9.32302 9.81695 9.41141 9.72855 9.41141 9.62052V8.44195C9.41141 8.33391 9.32302 8.24552 9.21498 8.24552H4.69713ZM13.9293 11.0937C11 11.0937 8.6257 13.4681 8.6257 16.3973C8.6257 19.3265 11 21.7009 13.9293 21.7009C16.8585 21.7009 19.2328 19.3265 19.2328 16.3973C19.2328 13.4681 16.8585 11.0937 13.9293 11.0937ZM16.5688 19.0368C15.8641 19.7415 14.9261 20.1294 13.9293 20.1294C12.9324 20.1294 11.9944 19.7415 11.2898 19.0368C10.5851 18.3321 10.1971 17.3942 10.1971 16.3973C10.1971 15.4004 10.5851 14.4625 11.2898 13.7578C11.9944 13.0531 12.9324 12.6652 13.9293 12.6652C14.9261 12.6652 15.8641 13.0531 16.5688 13.7578C17.2735 14.4625 17.6614 15.4004 17.6614 16.3973C17.6614 17.3942 17.2735 18.3321 16.5688 19.0368ZM13.1436 18.3616C13.1436 18.57 13.2263 18.7698 13.3737 18.9172C13.521 19.0645 13.7209 19.1473 13.9293 19.1473C14.1377 19.1473 14.3375 19.0645 14.4849 18.9172C14.6322 18.7698 14.715 18.57 14.715 18.3616C14.715 18.1532 14.6322 17.9534 14.4849 17.806C14.3375 17.6587 14.1377 17.5759 13.9293 17.5759C13.7209 17.5759 13.521 17.6587 13.3737 17.806C13.2263 17.9534 13.1436 18.1532 13.1436 18.3616ZM13.4382 16.7902H14.4203C14.5284 16.7902 14.6168 16.7018 14.6168 16.5937V13.8437C14.6168 13.7357 14.5284 13.6473 14.4203 13.6473H13.4382C13.3302 13.6473 13.2418 13.7357 13.2418 13.8437V16.5937C13.2418 16.7018 13.3302 16.7902 13.4382 16.7902ZM8.23284 19.3437H2.53641V2.05802H16.2864V10.5044C16.2864 10.6125 16.3748 10.7009 16.4828 10.7009H17.8578C17.9659 10.7009 18.0543 10.6125 18.0543 10.5044V1.07588C18.0543 0.641277 17.7032 0.290161 17.2686 0.290161H1.55427C1.11967 0.290161 0.768555 0.641277 0.768555 1.07588V20.3259C0.768555 20.7605 1.11967 21.1116 1.55427 21.1116H8.23284C8.34088 21.1116 8.42927 21.0232 8.42927 20.9152V19.5402C8.42927 19.4321 8.34088 19.3437 8.23284 19.3437Z" fill="black" fill-opacity="0.85"/>
</svg>
