<svg width="20" height="20" viewBox="0 0 20 20" fill="none" xmlns="http://www.w3.org/2000/svg">
<path d="M12.3574 0.181519C8.23485 0.181519 4.89311 3.52326 4.89311 7.64581C4.89311 9.37192 5.47994 10.9605 6.46209 12.225L5.45293 13.2342L3.92325 11.7045C3.88585 11.6679 3.83561 11.6474 3.78329 11.6474C3.73097 11.6474 3.68073 11.6679 3.64334 11.7045L2.6661 12.6817C2.62951 12.7191 2.60902 12.7694 2.60902 12.8217C2.60902 12.874 2.62951 12.9243 2.6661 12.9617L4.19579 14.4913L3.09334 15.5938L1.56365 14.0641C1.52625 14.0275 1.47601 14.007 1.42369 14.007C1.37137 14.007 1.32113 14.0275 1.28374 14.0641L0.306504 15.0413C0.269912 15.0787 0.249421 15.129 0.249421 15.1813C0.249421 15.2336 0.269912 15.2839 0.306504 15.3213L1.83619 16.8509L0.232844 18.4543C0.196288 18.4912 0.175781 18.5411 0.175781 18.593C0.175781 18.645 0.196288 18.6948 0.232844 18.7317L1.27146 19.7704C1.34758 19.8465 1.4728 19.8465 1.54892 19.7704L7.7757 13.5436C9.08648 14.5603 10.6985 15.1114 12.3574 15.1101C16.4799 15.1101 19.8217 11.7684 19.8217 7.64581C19.8217 3.52326 16.4799 0.181519 12.3574 0.181519ZM16.3154 11.6038C15.2596 12.6621 13.8527 13.244 12.3574 13.244C10.8621 13.244 9.45517 12.6621 8.39936 11.6038C7.3411 10.548 6.75918 9.14112 6.75918 7.64581C6.75918 6.15049 7.3411 4.74357 8.39936 3.68777C9.45517 2.62951 10.8621 2.04759 12.3574 2.04759C13.8527 2.04759 15.2596 2.62951 16.3154 3.68777C17.3737 4.74357 17.9556 6.15049 17.9556 7.64581C17.9556 9.14112 17.3737 10.548 16.3154 11.6038Z" fill="black" fill-opacity="0.85"/>
</svg>
