<svg width="18" height="20" viewBox="0 0 18 20" fill="none" xmlns="http://www.w3.org/2000/svg">
<path d="M9 0.375L0.75 3.125V11.375C0.75 15.9318 4.44316 19.625 9 19.625C13.5568 19.625 17.25 15.9318 17.25 11.375V3.125L9 0.375ZM15.7031 11.375C15.7031 15.0768 12.7018 18.0781 9 18.0781C5.29824 18.0781 2.29688 15.0768 2.29688 11.375V4.28516L9 1.92188L15.7031 4.28516V11.375Z" fill="black" fill-opacity="0.85"/>
<path d="M6.12866 9.20462C6.05697 9.1326 5.97177 9.07546 5.87793 9.03647C5.7841 8.99748 5.68349 8.9774 5.58188 8.9774C5.48027 8.9774 5.37966 8.99748 5.28583 9.03647C5.19199 9.07546 5.10679 9.1326 5.0351 9.20462C4.96309 9.2763 4.90595 9.36151 4.86695 9.45534C4.82796 9.54917 4.80789 9.64978 4.80789 9.75139C4.80789 9.853 4.82796 9.95362 4.86695 10.0474C4.90595 10.1413 4.96309 10.2265 5.0351 10.2982L7.8603 13.1234C7.92811 13.1913 8.00865 13.2452 8.09731 13.282C8.18597 13.3187 8.28101 13.3377 8.377 13.3377C8.47298 13.3377 8.56803 13.3187 8.65669 13.282C8.74535 13.2452 8.82589 13.1913 8.8937 13.1234L13.6955 8.32161C13.7634 8.2538 13.8173 8.17326 13.8541 8.0846C13.8908 7.99594 13.9098 7.90089 13.9098 7.80491C13.9098 7.70892 13.8908 7.61388 13.8541 7.52522C13.8173 7.43656 13.7634 7.35602 13.6955 7.28821L13.6353 7.22805C13.5675 7.16012 13.487 7.10622 13.3983 7.06945C13.3096 7.03267 13.2146 7.01375 13.1186 7.01375C13.0226 7.01375 12.9276 7.03267 12.8389 7.06945C12.7502 7.10622 12.6697 7.16012 12.6019 7.22805L8.37592 11.4519L6.12866 9.20462Z" fill="black" fill-opacity="0.85"/>
</svg>
