<svg width="22" height="20" viewBox="0 0 22 20" fill="none" xmlns="http://www.w3.org/2000/svg">
<path d="M21.5626 9.36428C20.6995 7.54584 19.6723 6.06281 18.4811 4.91517L17.2318 6.16446C18.2506 7.13801 19.1379 8.4116 19.9052 9.99776C17.8624 14.2259 14.9626 16.2344 10.9997 16.2344C9.81011 16.2344 8.71445 16.0512 7.71267 15.6849L6.35903 17.0385C7.7504 17.681 9.29727 18.0022 10.9997 18.0022C15.7189 18.0022 19.2398 15.5444 21.5626 10.6288C21.656 10.4311 21.7044 10.2152 21.7044 9.99653C21.7044 9.7779 21.656 9.56197 21.5626 9.36428ZM20.0017 1.49142L18.955 0.443474C18.9368 0.425211 18.9151 0.410723 18.8913 0.400837C18.8674 0.390952 18.8419 0.385864 18.816 0.385864C18.7902 0.385864 18.7647 0.390952 18.7408 0.400837C18.717 0.410723 18.6953 0.425211 18.6771 0.443474L15.9916 3.12767C14.5111 2.37142 12.8471 1.9933 10.9997 1.9933C6.28046 1.9933 2.75948 4.45111 0.436707 9.36673C0.343343 9.56443 0.294922 9.78035 0.294922 9.99899C0.294922 10.2176 0.343343 10.4335 0.436707 10.6312C1.36467 12.5857 2.48186 14.1523 3.78827 15.331L1.19001 17.9286C1.1532 17.9654 1.13252 18.0153 1.13252 18.0674C1.13252 18.1195 1.1532 18.1694 1.19001 18.2063L2.2382 19.2545C2.27504 19.2913 2.32498 19.3119 2.37705 19.3119C2.42913 19.3119 2.47907 19.2913 2.5159 19.2545L20.0017 1.76937C20.02 1.75112 20.0345 1.72946 20.0444 1.70561C20.0543 1.68177 20.0593 1.65621 20.0593 1.63039C20.0593 1.60458 20.0543 1.57902 20.0444 1.55517C20.0345 1.53133 20.02 1.50966 20.0017 1.49142ZM2.09407 9.99776C4.13939 5.76964 7.03916 3.76115 10.9997 3.76115C12.3388 3.76115 13.5564 3.99097 14.6611 4.45823L12.935 6.18435C12.1175 5.74818 11.1815 5.58631 10.265 5.72261C9.34856 5.8589 8.50016 6.28614 7.84499 6.94131C7.18982 7.59648 6.76258 8.44488 6.62628 9.36135C6.48999 10.2778 6.65186 11.2138 7.08802 12.0313L5.03976 14.0795C3.90613 13.079 2.92889 11.7234 2.09407 9.99776ZM8.15144 9.99776C8.15187 9.56479 8.25442 9.13803 8.45077 8.75215C8.64712 8.36627 8.93173 8.03214 9.28147 7.77691C9.63121 7.52169 10.0362 7.35256 10.4636 7.28327C10.891 7.21398 11.3287 7.24649 11.7412 7.37814L8.28182 10.8375C8.19511 10.566 8.15113 10.2827 8.15144 9.99776Z" fill="black" fill-opacity="0.85"/>
</svg>
