<svg width="18" height="16" viewBox="0 0 18 16" fill="none" xmlns="http://www.w3.org/2000/svg">
<path fill-rule="evenodd" clip-rule="evenodd" d="M13.4127 11.1348L17.3337 14.7182L16.3256 15.7777L12.4289 12.2164C11.1348 13.3718 9.44823 14.0109 7.69958 14.0083C3.81604 14.0083 0.666992 10.9222 0.666992 7.11501C0.666992 3.30822 3.81604 0.222168 7.69958 0.222168C11.5831 0.222168 14.7322 3.30822 14.7322 7.11501C14.7322 8.61525 14.2431 10.0036 13.4127 11.1348ZM13.4347 7.15519C13.4347 10.233 10.9278 12.737 7.76995 12.737C4.61386 12.737 2.0458 10.233 2.0458 7.15519C2.0458 4.07865 4.6143 1.57377 7.77083 1.57377C10.9278 1.57377 13.4356 4.07865 13.4356 7.15519H13.4347Z" fill="black" fill-opacity="0.25"/>
</svg>
