<svg width="22" height="20" viewBox="0 0 22 20" fill="none" xmlns="http://www.w3.org/2000/svg">
    <path d="M7.46429 14.7143H4.61607V11.8661C4.61607 11.7581 4.52768 11.6697 4.41964 11.6697H3.24107C3.13304 11.6697 3.04464 11.7581 3.04464 11.8661V14.7143H0.196429C0.0883929 14.7143 0 14.8027 0 14.9107V16.0893C0 16.1973 0.0883929 16.2857 0.196429 16.2857H3.04464V19.134C3.04464 19.242 3.13304 19.3304 3.24107 19.3304H4.41964C4.52768 19.3304 4.61607 19.242 4.61607 19.134V16.2857H7.46429C7.57232 16.2857 7.66071 16.1973 7.66071 16.0893V14.9107C7.66071 14.8027 7.57232 14.7143 7.46429 14.7143Z" fill="black" fill-opacity="0.85"/>
    <path d="M20.8214 4.35708L17.6786 6.16668V2.43454C17.6786 1.5678 16.9739 0.863111 16.1071 0.863111H1.57143C0.704688 0.863111 0 1.5678 0 2.43454V11.0774H1.76786V2.63097H15.9107V16.381H9.42857V18.1488H16.1071C16.9739 18.1488 17.6786 17.4441 17.6786 16.5774V12.8453L20.8214 14.6549C21.3444 14.9569 22 14.5787 22 13.9772V5.03722C22 4.4332 21.3444 4.05508 20.8214 4.35708ZM20.2321 12.2805L17.6786 10.8122V8.20218L20.2321 6.73142V12.2805Z" fill="black" fill-opacity="0.85"/>
    <path d="M6.2846 5.76487C6.39263 5.76487 6.48102 5.67648 6.48102 5.56845V4.38987C6.48102 4.28184 6.39263 4.19345 6.2846 4.19345H3.5346C3.42656 4.19345 3.33817 4.28184 3.33817 4.38987V5.56845C3.33817 5.67648 3.42656 5.76487 3.5346 5.76487H6.2846Z" fill="black" fill-opacity="0.85"/>
</svg>
