<svg width="15" height="13" viewBox="0 0 15 13" fill="none" xmlns="http://www.w3.org/2000/svg">
<path d="M5.08929 9.55521H3.14732V7.61325C3.14732 7.53959 3.08705 7.47932 3.01339 7.47932H2.20982C2.13616 7.47932 2.07589 7.53959 2.07589 7.61325V9.55521H0.133929C0.0602679 9.55521 0 9.61548 0 9.68914V10.4927C0 10.5664 0.0602679 10.6266 0.133929 10.6266H2.07589V12.5686C2.07589 12.6423 2.13616 12.7025 2.20982 12.7025H3.01339C3.08705 12.7025 3.14732 12.6423 3.14732 12.5686V10.6266H5.08929C5.16295 10.6266 5.22321 10.5664 5.22321 10.4927V9.68914C5.22321 9.61548 5.16295 9.55521 5.08929 9.55521Z" fill="#F6FDF7"/>
<path d="M14.1964 2.49347L12.0536 3.72729V1.18264C12.0536 0.591683 11.5731 0.111214 10.9821 0.111214H1.07143C0.480469 0.111214 0 0.591683 0 1.18264V7.0755H1.20536V1.31657H10.8482V10.6916H6.42857V11.8969H10.9821C11.5731 11.8969 12.0536 11.4165 12.0536 10.8255V8.28086L14.1964 9.51468C14.553 9.72059 15 9.46278 15 9.05262V2.9572C15 2.54537 14.553 2.28755 14.1964 2.49347ZM13.7946 7.89581L12.0536 6.8947V5.11512L13.7946 4.11233V7.89581Z" fill="#F6FDF7"/>
<path d="M4.28495 3.45332C4.35861 3.45332 4.41888 3.39306 4.41888 3.3194V2.51582C4.41888 2.44216 4.35861 2.3819 4.28495 2.3819H2.40995C2.33629 2.3819 2.27602 2.44216 2.27602 2.51582V3.3194C2.27602 3.39306 2.33629 3.45332 2.40995 3.45332H4.28495Z" fill="#F6FDF7"/>
</svg>
