<svg width="15" height="16" viewBox="0 0 15 16" fill="none" xmlns="http://www.w3.org/2000/svg">
    <path fill-rule="evenodd" clip-rule="evenodd" d="M1.04004 5.41588V3.53503C1.04004 2.67391 1.73812 1.97583 2.59925 1.97583C3.46037 1.97583 4.15845 2.67391 4.15845 3.53503V4.08682L7.3542 0.892215C7.88346 0.363138 8.73996 0.374073 9.26239 0.896313C9.3592 0.993094 9.43831 1.10145 9.49952 1.2171C9.9875 1.02214 10.5665 1.12572 10.9569 1.52606C11.3877 1.96777 11.4527 2.63173 11.1532 3.14023C11.259 3.20039 11.3586 3.27563 11.4488 3.36593C11.9756 3.89349 11.9896 4.74365 11.4804 5.28826C11.4764 5.2926 11.4722 5.29688 11.468 5.30109L11.41 5.35912L11.6079 5.5579L11.6082 5.55817C12.1296 6.07966 12.1295 6.92512 11.6079 7.44649L10.3777 8.6763C10.3612 8.6928 10.3438 8.70799 10.3258 8.72185C10.4067 8.77331 10.4833 8.83435 10.5539 8.90496C11.0752 9.42606 11.0752 10.2711 10.5539 10.7922L6.94969 14.3953C6.23548 15.1093 5.26693 15.5104 4.25704 15.5104H3.89648C1.74451 15.5104 0 13.7659 0 11.6139V6.88552C0 6.20669 0.43421 5.62928 1.04004 5.41588ZM8.09984 1.63813C8.21043 1.52757 8.39931 1.52483 8.51674 1.64222C8.62974 1.75518 8.62694 1.93682 8.52079 2.04293L8.52072 2.043L7.93335 2.63037C7.72741 2.83631 7.72741 3.17021 7.93335 3.37615C8.1393 3.58209 8.47319 3.58209 8.67913 3.37615L9.26643 2.78885L9.2665 2.78878L9.26676 2.78852L9.79565 2.25981C9.90814 2.14737 10.0908 2.14854 10.2019 2.2624C10.3111 2.37444 10.3097 2.55263 10.1995 2.66273C10.1552 2.70693 9.9438 2.91826 9.73661 3.12539L9.56429 3.29765C9.5395 3.31916 9.51529 3.3417 9.49172 3.36527L9.47488 3.38211C9.26894 3.58805 9.26894 3.92195 9.47488 4.12789C9.57848 4.23148 9.71445 4.28297 9.85023 4.28234C9.98598 4.28297 10.1219 4.23151 10.2255 4.12796L10.2739 4.07953C10.4027 3.98368 10.5857 3.99425 10.7025 4.11121C10.8261 4.23493 10.8309 4.43334 10.7147 4.56289L10.6136 4.66385C10.2296 5.0479 10.2293 5.66949 10.6133 6.05381L10.6137 6.05423L10.8623 6.30381C10.9719 6.41336 10.9719 6.59102 10.8623 6.70058L10.5856 6.97718C10.5318 6.89058 10.4673 6.80872 10.3922 6.73347C10.3067 6.64777 10.2124 6.57587 10.1121 6.51779C10.4236 5.99863 10.3555 5.31535 9.90795 4.86793C9.51331 4.47342 8.93538 4.374 8.44836 4.56966C8.38726 4.45443 8.30838 4.34647 8.21189 4.25001C7.6899 3.72819 6.83413 3.71729 6.30532 4.24593L3.11546 7.43477V6.88552C3.11546 6.21392 2.69045 5.6416 2.09473 5.42282V3.53503C2.09473 3.25639 2.32061 3.03051 2.59925 3.03051C2.87788 3.03051 3.10377 3.2564 3.10377 3.53503V5.35962C3.10377 5.57289 3.23223 5.76517 3.42926 5.8468C3.62629 5.92843 3.8531 5.88335 4.00393 5.73257L8.09984 1.63813Z" fill="url(#paint0_linear)"/>
    <path d="M14.0692 1.42655C14.2751 1.63249 14.2751 1.96638 14.0692 2.17232L13.2489 2.99264C13.0429 3.19858 12.709 3.19858 12.5031 2.99264C12.2971 2.7867 12.2971 2.4528 12.5031 2.24686L13.3234 1.42655C13.5293 1.22061 13.8632 1.22061 14.0692 1.42655Z" fill="url(#paint1_linear)"/>
    <path d="M13.1396 5.71057H14.3701C14.6614 5.71057 14.8975 5.47447 14.8975 5.18322C14.8975 4.89198 14.6614 4.65588 14.3701 4.65588H13.1396C12.8484 4.65588 12.6123 4.89198 12.6123 5.18322C12.6123 5.47447 12.8484 5.71057 13.1396 5.71057Z" fill="url(#paint2_linear)"/>
    <defs>
        <linearGradient id="paint0_linear" x1="-1.23052e-07" y1="15.2741" x2="1.23351" y2="-1.77527" gradientUnits="userSpaceOnUse">
            <stop stop-color="#00EFFF"/>
            <stop offset="0.8187" stop-color="#006DFF"/>
        </linearGradient>
        <linearGradient id="paint1_linear" x1="-1.23052e-07" y1="15.2741" x2="1.23351" y2="-1.77527" gradientUnits="userSpaceOnUse">
            <stop stop-color="#00EFFF"/>
            <stop offset="0.8187" stop-color="#006DFF"/>
        </linearGradient>
        <linearGradient id="paint2_linear" x1="-1.23052e-07" y1="15.2741" x2="1.23351" y2="-1.77527" gradientUnits="userSpaceOnUse">
            <stop stop-color="#00EFFF"/>
            <stop offset="0.8187" stop-color="#006DFF"/>
        </linearGradient>
    </defs>
</svg>
