<svg width="15" height="16" viewBox="0 0 15 16" fill="none" xmlns="http://www.w3.org/2000/svg">
    <path fill-rule="evenodd" clip-rule="evenodd" d="M8.51674 1.6465C8.39931 1.52911 8.21043 1.53184 8.09984 1.6424L4.00393 5.73684C3.8531 5.88762 3.62629 5.93271 3.42926 5.85107C3.23223 5.76944 3.10377 5.57716 3.10377 5.36389V3.53931C3.10377 3.26067 2.87788 3.03479 2.59925 3.03479C2.32061 3.03479 2.09473 3.26067 2.09473 3.53931V4.30859C2.09473 4.59983 1.85863 4.83593 1.56738 4.83593C1.27614 4.83593 1.04004 4.59983 1.04004 4.30859V3.53931C1.04004 2.67818 1.73812 1.9801 2.59925 1.9801C3.46037 1.9801 4.15845 2.67818 4.15845 3.53931V4.09109L7.3542 0.896488C7.88346 0.36741 8.73996 0.378346 9.26239 0.900586C9.3592 0.997366 9.43831 1.10572 9.49952 1.22138C9.9875 1.02641 10.5665 1.12999 10.9569 1.53033C11.387 1.97128 11.4524 2.63378 11.1551 3.14201C11.2567 3.20074 11.3523 3.27361 11.4392 3.3606C11.973 3.89517 11.973 4.76112 11.4392 5.2957L11.3652 5.36981C11.4514 5.42314 11.5329 5.48721 11.6078 5.56202C12.1295 6.08357 12.1295 6.92936 11.6078 7.45091L10.3777 8.68057C10.3612 8.69708 10.3438 8.71226 10.3258 8.72612C10.4067 8.77759 10.4833 8.83862 10.5539 8.90924C11.0752 9.43034 11.0752 10.2754 10.5539 10.7965L6.94969 14.3996C6.23548 15.1135 5.26693 15.5146 4.25704 15.5146H3.89648C1.74451 15.5146 0 13.7701 0 11.6182V6.88979C0 6.02948 0.69742 5.33206 1.55773 5.33206C2.41804 5.33206 3.11546 6.02948 3.11546 6.88979V7.43904L6.30532 4.2502C6.3411 4.21443 6.37839 4.18112 6.41696 4.15028L8.52079 2.04721C8.62694 1.9411 8.62974 1.75945 8.51674 1.6465ZM6.76555 5.28143C6.79084 5.26382 6.81493 5.24374 6.83749 5.22119L7.1044 4.95438C7.21515 4.88778 7.36654 4.90051 7.46623 5.00018C7.56978 5.10369 7.57569 5.2651 7.49366 5.37256L7.41739 5.4488C7.40538 5.46081 7.39406 5.47325 7.38345 5.48609L5.58386 7.2851C5.37789 7.491 5.37783 7.8249 5.58374 8.03087C5.78965 8.23685 6.12355 8.2369 6.32952 8.03099L8.74319 5.61809C8.85893 5.50239 9.04655 5.50239 9.16229 5.61809C9.27808 5.73385 9.27808 5.92157 9.16229 6.03733L6.76484 8.43401C6.55887 8.63991 6.55882 8.97381 6.76472 9.17978C6.97063 9.38576 7.30453 9.38581 7.5105 9.1799L8.93045 7.76041C8.94999 7.74566 8.96873 7.72938 8.98651 7.71157L9.21484 7.48282C9.33377 7.36367 9.52681 7.36368 9.64573 7.48282C9.76435 7.60165 9.76434 7.79408 9.64573 7.91291L8.2492 9.31202C8.22361 9.33766 8.20121 9.36527 8.18199 9.39437L8.04094 9.53538C7.83496 9.74128 7.83491 10.0752 8.04082 10.2812C8.24673 10.4871 8.58062 10.4872 8.7866 10.2813L9.41294 9.65513C9.52211 9.54599 9.69909 9.54599 9.80827 9.65513C9.91749 9.76432 9.91749 9.9414 9.80827 10.0506L6.20403 13.6537C5.6876 14.1699 4.98727 14.46 4.25704 14.46H3.89648C2.327 14.46 1.05469 13.1876 1.05469 11.6182V6.88979C1.05469 6.61197 1.27991 6.38675 1.55773 6.38675C1.83555 6.38675 2.06077 6.61197 2.06077 6.88979V8.71187C2.06077 8.92515 2.18924 9.11742 2.38627 9.19906C2.58331 9.28069 2.81011 9.2356 2.96095 9.08482L6.76555 5.28143ZM9.67362 4.68466C9.75678 4.73722 9.83545 4.79973 9.90795 4.8722C9.98796 4.95219 10.0559 5.03972 10.1116 5.13251L10.6929 4.55042C10.8155 4.42762 10.8155 4.22868 10.6929 4.10587C10.5813 3.99411 10.4066 3.98386 10.2834 4.07513L9.67362 4.68466ZM10.1974 6.57564C10.266 6.62267 10.3313 6.6767 10.3922 6.73774C10.4673 6.81299 10.5318 6.89485 10.5856 6.98145L10.8621 6.705C10.9718 6.59537 10.9718 6.41757 10.8621 6.30793C10.7525 6.19835 10.5748 6.19834 10.4652 6.30793L10.1974 6.57564ZM8.3908 4.47574C8.34009 4.39713 8.28043 4.3228 8.21189 4.25428C8.14218 4.18459 8.06651 4.12402 7.98647 4.07262L9.79565 2.26409C9.90814 2.15164 10.0908 2.15281 10.2019 2.26667C10.3111 2.37867 10.3099 2.55737 10.1994 2.66775L9.57386 3.29309C9.54913 3.31456 9.52498 3.33706 9.50148 3.3606L9.28018 3.5822C9.26641 3.59598 9.25356 3.61035 9.24164 3.6252L8.3908 4.47574Z" fill="white"/>
    <path d="M14.0692 1.43082C14.2751 1.63676 14.2751 1.97065 14.0692 2.1766L13.2489 2.99691C13.0429 3.20285 12.709 3.20285 12.5031 2.99691C12.2971 2.79097 12.2971 2.45707 12.5031 2.25113L13.3234 1.43082C13.5293 1.22488 13.8632 1.22488 14.0692 1.43082Z" fill="white"/>
    <path d="M13.1396 5.71484H14.3701C14.6614 5.71484 14.8975 5.47874 14.8975 5.1875C14.8975 4.89625 14.6614 4.66015 14.3701 4.66015H13.1396C12.8484 4.66015 12.6123 4.89625 12.6123 5.1875C12.6123 5.47874 12.8484 5.71484 13.1396 5.71484Z" fill="white"/>
</svg>
