<svg width="22" height="23" viewBox="0 0 22 23" fill="none" xmlns="http://www.w3.org/2000/svg">
<path fill-rule="evenodd" clip-rule="evenodd" d="M12.4912 1.68155C12.319 1.50937 12.042 1.51339 11.8798 1.67554L5.87243 7.68072C5.65121 7.90187 5.31856 7.96799 5.02958 7.84826C4.7406 7.72853 4.55219 7.44652 4.55219 7.13372V4.45767C4.55219 4.049 4.2209 3.71771 3.81223 3.71771C3.40356 3.71771 3.07227 4.049 3.07227 4.45767V5.58595C3.07227 6.01311 2.72599 6.35939 2.29883 6.35939C1.87167 6.35939 1.52539 6.01311 1.52539 5.58595V4.45767C1.52539 3.19468 2.54924 2.17083 3.81223 2.17083C5.07521 2.17083 6.09906 3.19468 6.09906 4.45767V5.26695L10.7862 0.581536C11.5624 -0.194445 12.8186 -0.178406 13.5848 0.587546C13.7268 0.72949 13.8429 0.888415 13.9326 1.05804C14.6483 0.772089 15.4976 0.924003 16.0702 1.51117C16.7009 2.1579 16.7968 3.12956 16.3607 3.87497C16.5098 3.96111 16.6501 4.06798 16.7775 4.19557C17.5605 4.97961 17.5605 6.24967 16.7775 7.03371L16.6689 7.1424C16.7954 7.22063 16.915 7.3146 17.0247 7.42431C17.7899 8.18925 17.7899 9.42976 17.0247 10.1947L15.2206 11.9982C15.1964 12.0224 15.1709 12.0447 15.1445 12.065C15.2632 12.1405 15.3755 12.23 15.4791 12.3336C16.2436 13.0978 16.2436 14.3372 15.4791 15.1015L10.1929 20.386C9.14536 21.4332 7.72483 22.0215 6.24366 22.0215H5.71484C2.55862 22.0215 0 19.4629 0 16.3067V9.37171C0 8.10993 1.02288 7.08704 2.28467 7.08704C3.54646 7.08704 4.56934 8.10993 4.56934 9.37171V10.1773L9.2478 5.50032C9.30028 5.44785 9.35497 5.399 9.41154 5.35377L12.4972 2.26926C12.6528 2.11363 12.657 1.84722 12.4912 1.68155ZM9.92281 7.01278C9.9599 6.98696 9.99523 6.95751 10.0283 6.92444L10.4198 6.5331C10.5822 6.43544 10.8043 6.45411 10.9505 6.60028C11.1023 6.7521 11.111 6.98883 10.9907 7.14644L10.8788 7.25825C10.8612 7.27587 10.8446 7.29413 10.8291 7.31295L8.18966 9.9515C7.88757 10.2535 7.88749 10.7432 8.18949 11.0453C8.49149 11.3474 8.9812 11.3475 9.28329 11.0455L12.8233 7.50656C12.9931 7.33686 13.2683 7.33686 13.438 7.50656C13.6079 7.67633 13.6079 7.95166 13.438 8.12143L9.92177 11.6366C9.61968 11.9386 9.6196 12.4283 9.9216 12.7304C10.2236 13.0325 10.7133 13.0325 11.0154 12.7305L13.098 10.6486C13.1266 10.627 13.1541 10.6031 13.1802 10.577L13.5151 10.2415C13.6895 10.0667 13.9727 10.0667 14.1471 10.2415C14.321 10.4158 14.321 10.698 14.1471 10.8723L12.0988 12.9243C12.0613 12.9619 12.0284 13.0024 12.0003 13.0451L11.7934 13.2519C11.4913 13.5539 11.4912 14.0436 11.7932 14.3457C12.0952 14.6478 12.5849 14.6479 12.887 14.3459L13.8056 13.4275C13.9658 13.2675 14.2253 13.2675 14.3855 13.4275C14.5457 13.5877 14.5457 13.8474 14.3855 14.0075L9.09925 19.2921C8.34181 20.0493 7.31466 20.4746 6.24366 20.4746H5.71484C3.41294 20.4746 1.54688 18.6086 1.54688 16.3067V9.37171C1.54688 8.96424 1.8772 8.63392 2.28467 8.63392C2.69215 8.63392 3.02247 8.96424 3.02247 9.37171V12.0441C3.02247 12.3569 3.21088 12.6389 3.49987 12.7586C3.78885 12.8784 4.1215 12.8122 4.34272 12.5911L9.92281 7.01278ZM14.188 6.13753C14.3099 6.21461 14.4253 6.30629 14.5317 6.41258C14.649 6.5299 14.7486 6.65828 14.8304 6.79437L15.6829 5.94064C15.8628 5.76052 15.8628 5.46875 15.6829 5.28863C15.5192 5.12472 15.2629 5.10969 15.0823 5.24355L14.188 6.13753ZM14.9561 8.91097C15.0568 8.97994 15.1526 9.05919 15.2419 9.1487C15.3521 9.25907 15.4466 9.37914 15.5255 9.50615L15.9311 9.10069C16.092 8.93989 16.092 8.67912 15.9311 8.51832C15.7703 8.35759 15.5097 8.35759 15.3489 8.51832L14.9561 8.91097ZM12.3065 5.8311C12.2321 5.71581 12.1446 5.6068 12.0441 5.5063C11.9419 5.40409 11.8309 5.31525 11.7135 5.23987L14.367 2.58735C14.5319 2.42243 14.7999 2.42414 14.9627 2.59114C15.1229 2.75541 15.1211 3.0175 14.9592 3.17939L14.0417 4.09656C14.0054 4.12804 13.97 4.16105 13.9355 4.19557L13.6109 4.52058C13.5907 4.5408 13.5719 4.56186 13.5544 4.58365L12.3065 5.8311Z" fill="#333333"/>
<path d="M20.6348 1.36522C20.9368 1.66727 20.9368 2.15698 20.6348 2.45903L19.4317 3.66215C19.1296 3.9642 18.6399 3.9642 18.3379 3.66215C18.0358 3.36011 18.0358 2.87039 18.3379 2.56835L19.541 1.36522C19.843 1.06318 20.3327 1.06318 20.6348 1.36522Z" fill="#333333"/>
<path d="M19.2715 7.64845H21.0762C21.5033 7.64845 21.8496 7.30217 21.8496 6.87502C21.8496 6.44786 21.5033 6.10158 21.0762 6.10158H19.2715C18.8443 6.10158 18.498 6.44786 18.498 6.87502C18.498 7.30217 18.8443 7.64845 19.2715 7.64845Z" fill="#333333"/>
</svg>
